<?xml version="1.0" encoding="UTF-8" standalone="no"?>
<!-- Created with Inkscape (http://www.inkscape.org/) -->

<svg
   xmlns:dc="http://purl.org/dc/elements/1.1/"
   xmlns:cc="http://creativecommons.org/ns#"
   xmlns:rdf="http://www.w3.org/1999/02/22-rdf-syntax-ns#"
   xmlns:svg="http://www.w3.org/2000/svg"
   xmlns="http://www.w3.org/2000/svg"
   xmlns:sodipodi="http://sodipodi.sourceforge.net/DTD/sodipodi-0.dtd"
   xmlns:inkscape="http://www.inkscape.org/namespaces/inkscape"
   width="800mm"
   height="600mm"
   viewBox="0 0 800 600"
   version="1.1"
   id="svg8"
   inkscape:version="0.92.3 (2405546, 2018-03-11)"
   sodipodi:docname="UWCSSCRBG1_white.svg">
  <defs
     id="defs2" />
  <sodipodi:namedview
     id="base"
     pagecolor="#ffffff"
     bordercolor="#666666"
     borderopacity="1.0"
     inkscape:pageopacity="0.0"
     inkscape:pageshadow="2"
     inkscape:zoom="0.7"
     inkscape:cx="1832.715"
     inkscape:cy="1150.0902"
     inkscape:document-units="mm"
     inkscape:current-layer="layer1"
     showgrid="false"
     inkscape:window-width="3840"
     inkscape:window-height="2004"
     inkscape:window-x="-16"
     inkscape:window-y="-16"
     inkscape:window-maximized="1" />
  <metadata
     id="metadata5">
    <rdf:RDF>
      <cc:Work
         rdf:about="">
        <dc:format>image/svg+xml</dc:format>
        <dc:type
           rdf:resource="http://purl.org/dc/dcmitype/StillImage" />
        <dc:title></dc:title>
      </cc:Work>
    </rdf:RDF>
  </metadata>
  <g
     inkscape:label="Layer 1"
     inkscape:groupmode="layer"
     id="layer1"
     transform="translate(0,303)">
    <flowRoot
       xml:space="preserve"
       id="flowRoot4532"
       style="font-style:normal;font-variant:normal;font-weight:normal;font-stretch:normal;font-size:53.33333206px;line-height:1.25;font-family:Quattrocento;-inkscape-font-specification:Quattrocento;letter-spacing:0px;word-spacing:0px;fill:#000000;fill-opacity:1;stroke:none"
       transform="matrix(0.26458333,0,0,0.26458333,0,-303)"><flowRegion
         id="flowRegion4534"><rect
           id="rect4536"
           width="515.71429"
           height="130.71428"
           x="108.57144"
           y="2148.4309" /></flowRegion><flowPara
         id="flowPara4538"
         style="font-weight:bold;font-size:82.66667175px" /></flowRoot>    <path
       style="fill:none;stroke:#ffffff;stroke-width:2.5;stroke-linecap:butt;stroke-linejoin:miter;stroke-miterlimit:4;stroke-dasharray:none;stroke-opacity:0.96270394"
       d="M 167.04346,289.78371 H 791.51871 V -294.6011 H 8.41899 v 584.2512 h 20.579753"
       id="path4578"
       inkscape:connector-curvature="0"
       sodipodi:nodetypes="cccccc" />
    <g
       aria-label="UW Tacoma"
       style="font-style:normal;font-variant:normal;font-weight:normal;font-stretch:normal;font-size:14.11111069px;line-height:1.25;font-family:Quattrocento;-inkscape-font-specification:Quattrocento;letter-spacing:0px;word-spacing:0px;fill:#ffffff;fill-opacity:1;stroke:none;stroke-width:0.26458332"
       id="text4582">
      <path
         inkscape:connector-curvature="0"
         id="path4544"
         style="font-style:normal;font-variant:normal;font-weight:normal;font-stretch:normal;font-size:25.39999962px;line-height:1.25;font-family:Quattrocento;-inkscape-font-specification:'Quattrocento, Normal';font-variant-ligatures:normal;font-variant-caps:normal;font-variant-numeric:normal;font-feature-settings:normal;text-align:start;letter-spacing:0px;word-spacing:0px;writing-mode:lr-tb;text-anchor:start;fill:#ffffff;fill-opacity:1;stroke:none;stroke-width:2.5;stroke-miterlimit:4;stroke-dasharray:none"
         d="m 50.845214,277.79854 -0.0762,0.4572 -0.1016,0.1016 q -0.4064,0 -0.7874,0.0508 -0.3556,0.0254 -0.5842,0.2032 -0.2032,0.1778 -0.381,0.4572 -0.1778,0.2794 -0.2286,0.9906 -0.0254,0.3048 -0.0508,0.6096 0,0.3048 -0.0254,0.7366 0,0.4318 0,1.0414 0,0.6096 0,1.4986 v 4.8768 q 0,1.2446 -0.381,2.3368 -0.3556,1.0668 -1.1176,1.8796 -0.762,0.7874 -1.9304,1.2446 -1.143,0.4572 -2.692399,0.4572 -1.778,0 -3.0226,-0.4572 -1.2192,-0.4572 -1.9812,-1.2446 -0.762,-0.8128 -1.1176,-1.8796 -0.3302,-1.0922 -0.3302,-2.3368 v -4.8768 q 0,-0.889 0,-1.4986 0,-0.6096 0,-1.0414 0,-0.4318 -0.0254,-0.7366 0,-0.3048 -0.0254,-0.6096 -0.0508,-0.6858 -0.254,-0.9652 -0.1778,-0.3048 -0.381,-0.4826 -0.2286,-0.1778 -0.5842,-0.2032 -0.3556,-0.0508 -0.762,-0.0508 l -0.127,-0.1016 -0.0762,-0.4572 0.0508,-0.1016 q 0.1778,0 0.5842,0.0254 0.4064,0.0254 0.8382,0.0508 0.4318,0.0254 0.8382,0.0508 0.4064,0.0254 0.5842,0.0254 h 0.4826 q 0.1778,0 0.5842,-0.0254 0.4064,-0.0254 0.8382,-0.0508 0.4318,-0.0254 0.8382,-0.0508 0.4064,-0.0254 0.5842,-0.0254 l 0.0508,0.1016 -0.0762,0.4572 -0.1016,0.1016 q -0.4064,0 -0.7874,0.0508 -0.3556,0.0254 -0.5842,0.2032 -0.2032,0.1778 -0.381,0.4572 -0.1778,0.2794 -0.2286,0.9906 -0.0254,0.3556 -0.0508,0.6604 0,0.3048 -0.0254,0.7112 0,0.4064 0,0.9906 0,0.5842 0,1.4986 v 4.191 q 0,2.7432 1.2192,3.937 1.2446,1.1938 3.429,1.1938 2.184399,0 3.428999,-1.1938 1.2446,-1.1938 1.2446,-3.937 v -4.191 q 0,-0.9144 0,-1.4986 0,-0.5842 -0.0254,-0.9906 0,-0.4064 -0.0254,-0.7112 0,-0.3048 -0.0254,-0.6604 -0.0508,-0.7112 -0.254,-0.9906 -0.1778,-0.2794 -0.381,-0.4572 -0.2032,-0.1778 -0.5842,-0.2032 -0.3556,-0.0508 -0.762,-0.0508 l -0.127,-0.1016 -0.0762,-0.4572 0.0508,-0.1016 q 0.1778,0 0.5334,0.0254 0.3556,0.0254 0.7366,0.0508 0.4064,0.0254 0.762,0.0508 0.3556,0.0254 0.5334,0.0254 h 0.5588 q 0.1778,0 0.5588,-0.0254 0.381,-0.0254 0.7874,-0.0508 0.4318,-0.0254 0.8128,-0.0508 0.381,-0.0254 0.5588,-0.0254 z" />
      <path
         inkscape:connector-curvature="0"
         id="path4546"
         style="font-style:normal;font-variant:normal;font-weight:normal;font-stretch:normal;font-size:25.39999962px;line-height:1.25;font-family:Quattrocento;-inkscape-font-specification:'Quattrocento, Normal';font-variant-ligatures:normal;font-variant-caps:normal;font-variant-numeric:normal;font-feature-settings:normal;text-align:start;letter-spacing:0px;word-spacing:0px;writing-mode:lr-tb;text-anchor:start;fill:#ffffff;fill-opacity:1;stroke:none;stroke-width:2.5;stroke-miterlimit:4;stroke-dasharray:none"
         d="m 59.167683,294.74034 -4.1402,-11.5316 q -0.2794,-0.762 -0.4826,-1.27 -0.1778,-0.508 -0.3302,-0.8636 -0.127,-0.3556 -0.2286,-0.5842 -0.1016,-0.2286 -0.1778,-0.4318 -0.2794,-0.635 -0.5842,-0.9652 -0.2794,-0.3556 -0.5842,-0.508 -0.3048,-0.1778 -0.635,-0.2032 -0.3048,-0.0254 -0.635,-0.0254 l -0.127,-0.1016 -0.0508,-0.4572 0.0254,-0.1016 q 0.1778,0 0.508,0.0254 0.3556,0.0254 0.7366,0.0508 0.381,0.0254 0.7366,0.0508 0.3556,0.0254 0.5334,0.0254 h 0.8636 q 0.1778,0 0.5842,-0.0254 0.4064,-0.0254 0.8382,-0.0508 0.4572,-0.0254 0.8636,-0.0508 0.4064,-0.0254 0.5842,-0.0254 l 0.0508,0.1016 -0.0762,0.4572 -0.127,0.1016 q -0.7366,0 -1.143,0.1778 -0.4064,0.1524 -0.4064,0.889 0,0.5842 0.381,1.651 0.4064,1.0414 0.9906,2.6416 l 1.7272,4.6736 q 0.4826,1.3208 0.8382,2.3876 0.381,1.0414 0.6858,1.8034 0.2794,-0.7366 0.6604,-1.7526 0.4064,-1.016 0.9144,-2.4384 l 1.7272,-4.6736 q 0.3556,-0.9906 0.635,-1.7526 0.3048,-0.762 0.508,-1.3716 -0.127,-0.4064 -0.3048,-0.7874 -0.1524,-0.381 -0.4064,-0.6858 -0.2286,-0.3048 -0.6096,-0.508 -0.381,-0.2032 -0.9398,-0.254 l -0.127,-0.1016 -0.0508,-0.4572 0.0254,-0.1016 q 0.1778,0 0.508,0.0254 0.3556,0.0254 0.7112,0.0508 0.381,0.0254 0.7112,0.0508 0.3556,0.0254 0.5334,0.0254 h 0.8382 q 0.1778,0 0.5588,-0.0254 0.381,-0.0254 0.8128,-0.0508 0.4318,-0.0254 0.8128,-0.0508 0.381,-0.0254 0.5588,-0.0254 l 0.0508,0.1016 -0.0762,0.4572 -0.127,0.1016 q -0.2794,0 -0.6096,0.1016 -0.3048,0.0762 -0.5842,0.254 -0.254,0.1778 -0.4318,0.4318 -0.1524,0.254 -0.1524,0.5842 0,0.254 0.0508,0.3556 0.1524,0.635 0.4826,1.524 0.3556,0.889 0.7874,2.1082 l 1.7272,4.6736 q 0.4826,1.2954 0.8636,2.3876 0.381,1.0668 0.6604,1.8034 0.2794,-0.7366 0.6604,-1.7526 0.4064,-1.016 0.9144,-2.4384 l 1.7272,-4.6736 q 0.5842,-1.6002 0.9652,-2.6416 0.4064,-1.0668 0.4064,-1.651 0,-0.7366 -0.4064,-0.889 -0.4064,-0.1778 -1.143,-0.1778 l -0.1016,-0.1016 -0.0762,-0.4572 0.0508,-0.1016 q 0.1778,0 0.5588,0.0254 0.381,0.0254 0.7874,0.0508 0.4064,0.0254 0.7874,0.0508 0.381,0.0254 0.5588,0.0254 h 0.4826 q 0.1778,0 0.508,-0.0254 0.3556,-0.0254 0.7366,-0.0508 0.381,-0.0254 0.7366,-0.0508 0.3556,-0.0254 0.5334,-0.0254 l 0.0508,0.1016 -0.0762,0.4572 -0.127,0.1016 q -0.3302,0 -0.635,0.0254 -0.3048,0.0254 -0.6096,0.2032 -0.3048,0.1524 -0.6096,0.508 -0.2794,0.3302 -0.5842,0.9652 -0.0762,0.2032 -0.2286,0.508 -0.127,0.3048 -0.4572,1.143 -0.3302,0.8382 -0.9652,2.413 -0.6096,1.5494 -1.651,4.2418 -0.3556,0.889 -0.7366,1.8542 -0.3556,0.9398 -0.7112,1.8034 -0.3302,0.8382 -0.5842,1.4986 -0.254,0.6604 -0.3556,0.9398 l -1.3208,0.2794 h -0.3048 l -4.4196,-12.2428 q -0.3556,0.889 -0.9144,2.286 -0.5334,1.397 -1.3716,3.5814 -0.3302,0.889 -0.7112,1.8542 -0.381,0.9398 -0.7366,1.8034 -0.3302,0.8382 -0.5842,1.4986 -0.254,0.6604 -0.3556,0.9398 l -1.3208,0.2794 z" />
      <path
         inkscape:connector-curvature="0"
         id="path4548"
         style="font-style:normal;font-variant:normal;font-weight:normal;font-stretch:normal;font-size:25.39999962px;line-height:1.25;font-family:Quattrocento;-inkscape-font-specification:'Quattrocento, Normal';font-variant-ligatures:normal;font-variant-caps:normal;font-variant-numeric:normal;font-feature-settings:normal;text-align:start;letter-spacing:0px;word-spacing:0px;writing-mode:lr-tb;text-anchor:start;fill:#ffffff;fill-opacity:1;stroke:none;stroke-width:2.5;stroke-miterlimit:4;stroke-dasharray:none"
         d="m 98.432907,280.87194 q -0.0762,-0.5588 -0.4826,-0.9398 -0.4064,-0.381 -1.016,-0.6096 -0.5842,-0.2286 -1.3208,-0.3048 -0.7112,-0.1016 -1.4224,-0.1016 -2.514599,0 -3.962399,1.143 -1.1938,0.9652 -1.8034,2.5654 -0.5842,1.6002 -0.5842,3.5052 0,1.8034 0.508,3.175 0.5334,1.3462 1.4478,2.2606 0.9144,0.9144 2.159,1.397 1.269999,0.4572 2.743199,0.4572 1.0414,0 2.3876,-0.2794 1.3716,-0.3048 2.5908,-1.143 l 0.254,0.2794 -0.5588,1.143 q -1.27,0.6858 -2.54,1.016 -1.2446,0.3048 -2.5908,0.3048 -1.904999,0 -3.454399,-0.6096 -1.5494,-0.6096 -2.667,-1.7272 -1.0922,-1.143 -1.7018,-2.6924 -0.6096,-1.5748 -0.6096,-3.4798 0,-1.778 0.5334,-3.3528 0.5588,-1.6002 1.6256,-2.7686 1.0922,-1.1684 2.667,-1.8542 1.6002,-0.6858 3.708399,-0.6858 0.4572,0 1.0668,0.0508 0.635,0.0254 1.3208,0.127 0.6858,0.1016 1.397,0.2794 0.7112,0.1524 1.3716,0.4064 l 0.0762,0.2286 -0.3302,2.3114 h -0.7366 z" />
      <path
         inkscape:connector-curvature="0"
         id="path4550"
         style="font-style:normal;font-variant:normal;font-weight:normal;font-stretch:normal;font-size:25.39999962px;line-height:1.25;font-family:Quattrocento;-inkscape-font-specification:'Quattrocento, Normal';font-variant-ligatures:normal;font-variant-caps:normal;font-variant-numeric:normal;font-feature-settings:normal;text-align:start;letter-spacing:0px;word-spacing:0px;writing-mode:lr-tb;text-anchor:start;fill:#ffffff;fill-opacity:1;stroke:none;stroke-width:2.5;stroke-miterlimit:4;stroke-dasharray:none"
         d="m 104.46263,281.55774 q 0,0.7112 0.254,1.1938 0.254,0.4572 0.762,0.8128 0.5334,0.3556 1.3208,0.6604 0.8128,0.2794 1.905,0.6096 0.9398,0.3048 1.8542,0.6858 0.9144,0.381 1.6256,0.9906 0.7366,0.5842 1.1684,1.4478 0.4318,0.8382 0.4318,2.0574 0,1.2954 -0.508,2.2098 -0.508,0.889 -1.3462,1.4478 -0.8382,0.5588 -1.9558,0.8128 -1.0922,0.254 -2.3114,0.254 -1.5748,0 -2.8702,-0.3556 -1.2954,-0.3556 -2.3368,-0.889 l -0.1016,-0.3302 0.4318,-2.7178 h 0.635 l 0.127,0.1524 q 0.127,1.5494 1.2446,2.286 1.1176,0.7112 3.048,0.7112 1.9812,0 2.9718,-0.889 1.016,-0.9144 1.016,-2.3622 0,-0.889 -0.381,-1.4732 -0.381,-0.6096 -1.016,-1.016 -0.6096,-0.4318 -1.4224,-0.7112 -0.7874,-0.2794 -1.6002,-0.5588 -1.016,-0.3302 -1.905,-0.7112 -0.8636,-0.4064 -1.524,-0.9398 -0.635,-0.5334 -1.016,-1.27 -0.3556,-0.7366 -0.3556,-1.7526 0,-1.1938 0.4064,-2.0066 0.4318,-0.8382 1.1684,-1.3462 0.7366,-0.5334 1.7018,-0.762 0.9906,-0.2286 2.1336,-0.2286 1.3716,0 2.5908,0.254 1.2192,0.254 1.9812,0.6096 l 0.1016,0.2794 -0.3556,2.2606 h -0.7112 l -0.127,-0.127 q -0.0508,-0.6604 -0.4318,-1.0668 -0.381,-0.4064 -0.9144,-0.635 -0.508,-0.2286 -1.1176,-0.3048 -0.5842,-0.0762 -1.0414,-0.0762 -1.651,0 -2.5908,0.7366 -0.9398,0.7112 -0.9398,2.0574 z" />
      <path
         inkscape:connector-curvature="0"
         id="path4552"
         style="font-style:normal;font-variant:normal;font-weight:normal;font-stretch:normal;font-size:25.39999962px;line-height:1.25;font-family:Quattrocento;-inkscape-font-specification:'Quattrocento, Normal';font-variant-ligatures:normal;font-variant-caps:normal;font-variant-numeric:normal;font-feature-settings:normal;text-align:start;letter-spacing:0px;word-spacing:0px;writing-mode:lr-tb;text-anchor:start;fill:#ffffff;fill-opacity:1;stroke:none;stroke-width:2.5;stroke-miterlimit:4;stroke-dasharray:none"
         d="m 118.45247,281.55774 q 0,0.7112 0.254,1.1938 0.254,0.4572 0.762,0.8128 0.5334,0.3556 1.3208,0.6604 0.8128,0.2794 1.905,0.6096 0.9398,0.3048 1.8542,0.6858 0.9144,0.381 1.6256,0.9906 0.7366,0.5842 1.1684,1.4478 0.4318,0.8382 0.4318,2.0574 0,1.2954 -0.508,2.2098 -0.508,0.889 -1.3462,1.4478 -0.8382,0.5588 -1.9558,0.8128 -1.0922,0.254 -2.3114,0.254 -1.5748,0 -2.8702,-0.3556 -1.2954,-0.3556 -2.3368,-0.889 l -0.1016,-0.3302 0.4318,-2.7178 h 0.635 l 0.127,0.1524 q 0.127,1.5494 1.2446,2.286 1.1176,0.7112 3.048,0.7112 1.9812,0 2.9718,-0.889 1.016,-0.9144 1.016,-2.3622 0,-0.889 -0.381,-1.4732 -0.381,-0.6096 -1.016,-1.016 -0.6096,-0.4318 -1.4224,-0.7112 -0.7874,-0.2794 -1.6002,-0.5588 -1.016,-0.3302 -1.905,-0.7112 -0.8636,-0.4064 -1.524,-0.9398 -0.635,-0.5334 -1.016,-1.27 -0.3556,-0.7366 -0.3556,-1.7526 0,-1.1938 0.4064,-2.0066 0.4318,-0.8382 1.1684,-1.3462 0.7366,-0.5334 1.7018,-0.762 0.9906,-0.2286 2.1336,-0.2286 1.3716,0 2.5908,0.254 1.2192,0.254 1.9812,0.6096 l 0.1016,0.2794 -0.3556,2.2606 h -0.7112 l -0.127,-0.127 q -0.0508,-0.6604 -0.4318,-1.0668 -0.381,-0.4064 -0.9144,-0.635 -0.508,-0.2286 -1.1176,-0.3048 -0.5842,-0.0762 -1.0414,-0.0762 -1.651,0 -2.5908,0.7366 -0.9398,0.7112 -0.9398,2.0574 z" />
      <path
         inkscape:connector-curvature="0"
         id="path4554"
         style="font-style:normal;font-variant:normal;font-weight:normal;font-stretch:normal;font-size:25.39999962px;line-height:1.25;font-family:Quattrocento;-inkscape-font-specification:'Quattrocento, Normal';font-variant-ligatures:normal;font-variant-caps:normal;font-variant-numeric:normal;font-feature-settings:normal;text-align:start;letter-spacing:0px;word-spacing:0px;writing-mode:lr-tb;text-anchor:start;fill:#ffffff;fill-opacity:1;stroke:none;stroke-width:2.5;stroke-miterlimit:4;stroke-dasharray:none"
         d="m 142.93251,280.87194 q -0.0762,-0.5588 -0.4826,-0.9398 -0.4064,-0.381 -1.016,-0.6096 -0.5842,-0.2286 -1.3208,-0.3048 -0.7112,-0.1016 -1.4224,-0.1016 -2.5146,0 -3.9624,1.143 -1.1938,0.9652 -1.8034,2.5654 -0.5842,1.6002 -0.5842,3.5052 0,1.8034 0.508,3.175 0.5334,1.3462 1.4478,2.2606 0.9144,0.9144 2.159,1.397 1.27,0.4572 2.7432,0.4572 1.0414,0 2.3876,-0.2794 1.3716,-0.3048 2.5908,-1.143 l 0.254,0.2794 -0.5588,1.143 q -1.27,0.6858 -2.54,1.016 -1.2446,0.3048 -2.5908,0.3048 -1.905,0 -3.4544,-0.6096 -1.5494,-0.6096 -2.667,-1.7272 -1.0922,-1.143 -1.7018,-2.6924 -0.6096,-1.5748 -0.6096,-3.4798 0,-1.778 0.5334,-3.3528 0.5588,-1.6002 1.6256,-2.7686 1.0922,-1.1684 2.667,-1.8542 1.6002,-0.6858 3.7084,-0.6858 0.4572,0 1.0668,0.0508 0.635,0.0254 1.3208,0.127 0.6858,0.1016 1.397,0.2794 0.7112,0.1524 1.3716,0.4064 l 0.0762,0.2286 -0.3302,2.3114 h -0.7366 z" />
      <path
         inkscape:connector-curvature="0"
         id="path4556"
         style="font-style:normal;font-variant:normal;font-weight:normal;font-stretch:normal;font-size:25.39999962px;line-height:1.25;font-family:Quattrocento;-inkscape-font-specification:'Quattrocento, Normal';font-variant-ligatures:normal;font-variant-caps:normal;font-variant-numeric:normal;font-feature-settings:normal;text-align:start;letter-spacing:0px;word-spacing:0px;writing-mode:lr-tb;text-anchor:start;fill:#ffffff;fill-opacity:1;stroke:none;stroke-width:2.5;stroke-miterlimit:4;stroke-dasharray:none"
         d="m 152.77223,294.61334 q -0.1778,0 -0.5842,-0.0254 -0.4064,-0.0254 -0.8382,-0.0508 -0.4318,-0.0254 -0.8382,-0.0508 -0.4064,-0.0254 -0.5842,-0.0254 h -0.48259 q -0.1778,0 -0.5842,0.0254 -0.4064,0.0254 -0.8382,0.0508 -0.4318,0.0254 -0.8382,0.0508 -0.4064,0.0254 -0.5842,0.0254 l -0.0508,-0.1016 0.0762,-0.4572 0.127,-0.1016 q 0.3048,0 0.7112,-0.0254 0.4064,-0.0508 0.635,-0.2032 0.2032,-0.1524 0.381,-0.4826 0.1778,-0.3302 0.254,-0.9906 0,-0.1778 0,-0.4064 0.0254,-0.254 0.0254,-0.6096 0.0254,-0.3556 0.0254,-0.8636 0,-0.508 0,-1.27 v -6.604 q 0,-0.508 -0.0254,-1.143 0,-0.6604 -0.0508,-1.2954 -0.0508,-0.5842 -0.2286,-0.9144 -0.1778,-0.3556 -0.381,-0.5334 -0.2286,-0.127 -0.4826,-0.1778 -0.2286,-0.0762 -0.8636,-0.0762 l -0.127,-0.1016 -0.0762,-0.4572 0.0508,-0.1016 q 0.1778,0 0.4572,0.0254 0.3048,0.0254 0.6096,0.0508 0.3302,0.0254 0.6604,0.0508 0.3302,0.0254 0.6096,0.0254 h 0.91439 q 0.2794,0 0.635,0 0.3556,0 0.7112,0 0.381,-0.0254 0.6858,-0.0254 0.3048,0 0.508,0 1.7018,0 2.8702,0.3302 1.1938,0.3302 1.9304,0.9144 0.7366,0.5588 1.0668,1.3716 0.3556,0.7874 0.3556,1.7018 0,1.0922 -0.4064,1.905 -0.381,0.7874 -0.9906,1.3716 -0.6096,0.5588 -1.3716,0.9144 -0.762,0.3302 -1.4986,0.508 0.8128,1.143 1.6764,2.2606 0.8636,1.1176 1.778,2.1844 0.508,0.5842 0.9398,1.0414 0.4318,0.4572 0.9144,0.7874 0.508,0.3302 1.1176,0.5334 0.6096,0.2032 1.4732,0.3048 l 0.1524,0.1016 0.0508,0.4572 -0.0508,0.1016 q -0.5588,0.0254 -1.27,0.0508 -0.7112,0.0508 -1.1176,0.0508 -0.6604,0 -1.143,-0.1524 -0.4826,-0.1524 -0.9398,-0.4826 -0.4572,-0.3302 -0.9398,-0.8636 -0.4572,-0.5334 -1.0668,-1.27 -0.0762,-0.0762 -0.4572,-0.5842 -0.3556,-0.5334 -0.889,-1.2446 -0.508,-0.7366 -1.0922,-1.5494 -0.5588,-0.8382 -1.0414,-1.5494 h -1.8542 q 0,0.6858 0,1.4986 0,0.8128 0,1.5494 0.0254,0.7366 0.0254,1.3462 0.0254,0.5842 0.0508,0.8382 0.0508,0.7366 0.254,1.0414 0.2032,0.2794 0.3556,0.4064 0.2286,0.127 0.4572,0.2032 0.254,0.0508 0.9144,0.0508 l 0.1016,0.1016 0.0762,0.4572 z m 0.127,-8.7122 q 2.1082,0 3.0226,-0.9652 0.9398,-0.9906 0.9398,-2.6416 0,-1.5494 -1.0668,-2.3876 -1.0414,-0.8382 -2.8702,-0.8382 h -2.2098 q -0.0508,0.7366 -0.0762,1.2446 0,0.508 -0.0254,0.889 -0.0254,0.381 -0.0254,0.6858 0,0.3048 0,0.5842 v 2.4892 q 0,0.3302 0.0254,0.5334 0.0254,0.1778 0.127,0.2794 0.1016,0.0762 0.2794,0.1016 0.2032,0.0254 0.5334,0.0254 z" />
    </g>
  </g>
</svg>
